# xmcd
#
# Track frame offsets: 
#        150
#        109747
#        144469
#        168057
#
# Disc length: 2642 seconds
#
# Revision: 0
# Processed by: cddbd v1.5.2PL0 Copyright (c) Steve Scherf et al.
# Submitted via: ExactAudioCopyFreeDBPlugin 1.0
#
DISCID=2a0a5004
DTITLE=Sandro Perri - In Another Life
DYEAR=2018
DGENRE=No, thanks.
TTITLE0=In Another Life
TTITLE1=Everybody's Paris, Pt. 1
TTITLE2=Everybody's Paris, Pt. 2
TTITLE3=Everybody's Paris, Pt. 3
EXTD=
EXTT0=
EXTT1=
EXTT2=
EXTT3=
PLAYORDER=
